<?xml version="1.0" encoding="UTF-8" standalone="no"?>
<svg
   xmlns:dc="http://purl.org/dc/elements/1.1/"
   xmlns:cc="http://creativecommons.org/ns#"
   xmlns:rdf="http://www.w3.org/1999/02/22-rdf-syntax-ns#"
   xmlns:svg="http://www.w3.org/2000/svg"
   xmlns="http://www.w3.org/2000/svg"
   xmlns:sodipodi="http://sodipodi.sourceforge.net/DTD/sodipodi-0.dtd"
   xmlns:inkscape="http://www.inkscape.org/namespaces/inkscape"
   data-name="Layer 1"
   viewBox="0 0 24 24"
   x="0px"
   y="0px"
   version="1.1"
   id="svg14"
   sodipodi:docname="pools.svg"
   inkscape:version="0.92.3 (2405546, 2018-03-11)"
   width="24"
   height="24">
  <metadata
     id="metadata20">
    <rdf:RDF>
      <cc:Work
         rdf:about="">
        <dc:format>image/svg+xml</dc:format>
        <dc:type
           rdf:resource="http://purl.org/dc/dcmitype/StillImage" />
        <dc:title>Artboard 10</dc:title>
      </cc:Work>
    </rdf:RDF>
  </metadata>
  <defs
     id="defs18" />
  <sodipodi:namedview
     pagecolor="#ffffff"
     bordercolor="#666666"
     borderopacity="1"
     objecttolerance="10"
     gridtolerance="10"
     guidetolerance="10"
     inkscape:pageopacity="0"
     inkscape:pageshadow="2"
     inkscape:window-width="1918"
     inkscape:window-height="1034"
     id="namedview16"
     showgrid="false"
     inkscape:zoom="7.552"
     inkscape:cx="-43.293655"
     inkscape:cy="16.447723"
     inkscape:window-x="0"
     inkscape:window-y="22"
     inkscape:window-maximized="0"
     inkscape:current-layer="svg14" />
  <title
     id="title2">Artboard 10</title>
  <path
     id="path4"
     style="stroke-width:0.22223864"
     d="M 10.009487,1.1340414 A 1.9734791,1.9734791 0 0 0 9.3061594,1.2577199 2.0179268,2.0179268 0 0 0 8.3420638,2.0340629 1.9512552,1.9512552 0 0 0 8.067885,2.649475 2.8179859,2.8179859 0 0 0 8.0053017,3.2842584 c 0,0.3466923 -0.014953,0.702416 -0.023842,1.0624427 -0.011108,0.7244979 -0.017883,1.469843 -0.017883,2.223232 0,2.9824426 0.1062399,5.9659559 0.312922,7.4505099 0,0.05334 0.1536927,0.09163 0.3203712,0.08941 0.1666786,-0.0022 0.2682439,-0.04274 0.2726885,-0.08941 0.05334,-0.380028 0.100067,-0.862223 0.14007,-1.415597 1.4067706,0.34447 4.8477486,0.355761 6.3523046,0.0313 0.03778,0.542262 0.08448,1.010945 0.135599,1.384305 0,0.05334 0.153693,0.09163 0.320372,0.08941 0.166679,-0.0022 0.269002,-0.04274 0.275668,-0.08941 0.206683,-1.484553 0.3107,-4.4680665 0.312922,-7.4505091 0,-0.7467218 -1.05e-4,-1.492067 -0.01788,-2.223232 0,-0.3600266 -0.01495,-0.7157504 -0.02384,-1.0624427 a 1.7779091,1.7779091 0 0 1 0,-0.3844463 0.90451125,0.90451125 0 0 1 0.104307,-0.3024907 1.0623007,1.0623007 0 0 1 0.44405,-0.4306394 1.1267499,1.1267499 0 0 1 0.575179,-0.1192082 1.2578707,1.2578707 0 0 1 0.889591,0.4708722 c 0.02667,0.033336 0.17521,-4.596e-4 0.326332,-0.080465 0.151123,-0.080006 0.221924,-0.1642432 0.204145,-0.2220253 A 1.720127,1.720127 0 0 0 18.464325,1.5974631 1.8468031,1.8468031 0 0 0 17.626888,1.1757643 1.9823686,1.9823686 0 0 0 16.528683,1.2577199 2.0268163,2.0268163 0 0 0 15.561607,2.035553 1.9468104,1.9468104 0 0 0 15.290409,2.6509651 2.7113113,2.7113113 0 0 0 15.220371,3.2842584 c 0,0.3466923 -0.01569,0.702416 -0.02235,1.0624427 0,0.3244684 -7.5e-5,0.6553119 -0.01341,0.9864475 -1.517889,-0.275576 -4.572455,-0.265775 -6.0125606,0.029802 0,-0.3422474 -7.4e-5,-0.6806691 -0.01341,-1.0162494 -0.01334,-0.3355804 -0.01569,-0.7157504 -0.02235,-1.0624427 a 1.8112448,1.8112448 0 0 1 0,-0.3844463 0.96229329,0.96229329 0 0 1 0.111757,-0.3024907 1.0489664,1.0489664 0 0 1 0.444051,-0.4306394 1.1111932,1.1111932 0 0 1 0.5736886,-0.1192082 1.2623155,1.2623155 0 0 1 0.889591,0.4708722 c 0.02444,0.033336 0.172988,-4.596e-4 0.326332,-0.080466 0.153345,-0.080006 0.221923,-0.1642431 0.204144,-0.2220252 A 1.749018,1.749018 0 0 0 11.241801,1.5974631 1.8445806,1.8445806 0 0 0 10.401384,1.1757643 1.9734791,1.9734791 0 0 0 10.009487,1.1340414 Z M 9.1765204,6.1184322 c 1.4356616,0.3022446 4.4812606,0.3135609 5.9991496,0.035763 v 0.4082879 c 0,0.6822726 1.06e-4,1.3650254 0.01788,2.0295187 -1.517891,-0.2800205 -4.597029,-0.2717107 -6.0349126,0.028312 0,-0.6667157 0.01566,-1.3666682 0.01788,-2.0578303 z m -0.03576,3.2573629 c 1.4356616,0.3022447 4.5498046,0.3112839 6.0676946,0.026825 0.02,0.8889539 0.05165,1.7231079 0.09388,2.4676079 -1.51789,-0.311134 -4.840545,-0.299842 -6.2584276,0.0313 0.04223,-0.760056 0.07463,-1.618989 0.09686,-2.5257225 z m 5.9201746,6.7009879 a 2.3557295,2.3557295 0 0 0 -0.558788,0.06407 2.2690564,2.2690564 0 0 0 -0.940255,0.497694 7.4249927,7.4249927 0 0 0 -0.609451,0.618392 c -0.34447,0.368916 -0.575886,0.489563 -0.958136,0.500675 -0.38225,0.01111 -0.612176,-0.131759 -0.956646,-0.500675 a 7.1116362,7.1116362 0 0 0 -0.609451,-0.615412 2.2735012,2.2735012 0 0 0 -0.9357836,-0.488753 2.3579519,2.3579519 0 0 0 -1.0266799,-0.01639 2.0779312,2.0779312 0 0 0 -0.9223735,0.44554 4.6358978,4.6358978 0 0 0 -0.5826298,0.588591 3.4358093,3.4358093 0 0 1 -0.4306395,0.44405 0.98451712,0.98451712 0 0 1 -0.4157384,0.222025 1.3334318,1.3334318 0 0 1 -0.2369262,0.03874 2.1912729,2.1912729 0 0 1 -0.2428866,0 A 1.1600857,1.1600857 0 0 1 5.2128498,17.741227 1.984591,1.984591 0 0 1 4.8209531,17.443207 6.1004504,6.1004504 0 0 0 3.9537138,16.669844 1.8001329,1.8001329 0 0 0 2.9180929,16.379273 c -0.088896,0 -0.1549195,0.141772 -0.1460299,0.308451 0.00889,0.166679 0.051727,0.27423 0.1072873,0.28312 a 1.2645378,1.2645378 0 0 1 0.643724,0.301 7.1783078,7.1783078 0 0 1 0.6675657,0.759953 2.7535366,2.7535366 0 0 0 0.5215356,0.476832 2.0845984,2.0845984 0 0 0 0.759952,0.312921 2.4068444,2.4068444 0 0 0 0.8463779,0 2.0201492,2.0201492 0 0 0 0.8359471,-0.360604 4.0891909,4.0891909 0 0 0 0.6288229,-0.551338 3.791391,3.791391 0 0 1 0.4693825,-0.444051 0.9422918,0.9422918 0 0 1 0.4440502,-0.193713 1.2200901,1.2200901 0 0 1 0.5155752,0.02235 1.0956364,1.0956364 0 0 1 0.44405,0.253317 7.3538764,7.3538764 0 0 1 0.5081246,0.533457 2.9602186,2.9602186 0 0 0 0.774853,0.633293 2.3001699,2.3001699 0 0 0 2.133826,0 2.9379947,2.9379947 0 0 0 0.777833,-0.633293 c 0.197792,-0.222238 0.352533,-0.402336 0.503655,-0.533457 a 1.1111932,1.1111932 0 0 1 0.44554,-0.250337 1.2200901,1.2200901 0 0 1 0.515575,-0.02235 0.96451564,0.96451564 0 0 1 0.44405,0.193714 4.135861,4.135861 0 0 1 0.469383,0.44405 4.066967,4.066967 0 0 0 0.607962,0.555809 2.0179268,2.0179268 0 0 0 0.838927,0.362094 2.4757384,2.4757384 0 0 0 0.847868,0 2.111267,2.111267 0 0 0 0.762932,-0.312921 2.8490992,2.8490992 0 0 0 0.524516,-0.478323 7.6427867,7.6427867 0 0 1 0.666075,-0.758462 1.2867617,1.2867617 0 0 1 0.645214,-0.29951 c 0.06001,0 0.110242,-0.16415 0.105798,-0.335273 0,-0.153345 -0.06605,-0.271956 -0.1505,-0.274179 a 1.8268016,1.8268016 0 0 0 -1.026681,0.298021 6.10934,6.10934 0 0 0 -0.867239,0.759952 2.0734865,2.0734865 0 0 1 -0.390407,0.298019 1.1889767,1.1889767 0 0 1 -0.420208,0.13113 2.1579371,2.1579371 0 0 1 -0.239907,0 1.3334318,1.3334318 0 0 1 -0.238417,-0.03725 0.98451712,0.98451712 0 0 1 -0.415737,-0.222025 3.1357871,3.1357871 0 0 1 -0.42915,-0.445541 4.5247785,4.5247785 0 0 0 -0.599021,-0.584119 2.0779312,2.0779312 0 0 0 -0.922373,-0.44405 2.3557295,2.3557295 0 0 0 -0.467892,-0.04917 z m 0,3.890656 a 2.3557295,2.3557295 0 0 0 -0.558788,0.06557 2.2690564,2.2690564 0 0 0 -0.940255,0.497694 7.4249927,7.4249927 0 0 0 -0.609451,0.616902 c -0.34447,0.368916 -0.575886,0.49032 -0.958136,0.503655 -0.38225,0.01334 -0.612176,-0.132517 -0.956646,-0.503655 A 7.7939091,7.7939091 0 0 0 10.428208,20.532193 2.2735012,2.2735012 0 0 0 9.4924244,20.04344 2.3579519,2.3579519 0 0 0 8.4657445,20.02854 2.0779312,2.0779312 0 0 0 7.543371,20.47259 a 4.780353,4.780353 0 0 0 -0.5915704,0.597531 3.2957989,3.2957989 0 0 1 -0.4306394,0.44554 0.98451712,0.98451712 0 0 1 -0.4157385,0.222025 1.3334318,1.3334318 0 0 1 -0.2369262,0.04023 2.1823833,2.1823833 0 0 1 -0.2428866,0 A 1.2000886,1.2000886 0 0 1 5.2039093,21.646784 2.1734938,2.1734938 0 0 1 4.8209531,21.336842 5.9737745,5.9737745 0 0 0 3.9537138,20.576891 1.817912,1.817912 0 0 0 2.9180929,20.286321 c -0.088896,0 -0.1549195,0.141771 -0.1460299,0.308451 0.00889,0.166679 0.051727,0.263067 0.1072873,0.274179 a 1.2467587,1.2467587 0 0 1 0.643724,0.301 7.1116362,7.1116362 0 0 1 0.6675657,0.758462 2.7535366,2.7535366 0 0 0 0.5215356,0.475343 2.0868208,2.0868208 0 0 0 0.759952,0.315901 2.3579519,2.3579519 0 0 0 0.8463779,0 2.0001477,2.0001477 0 0 0 0.8359471,-0.360605 4.0891909,4.0891909 0 0 0 0.6288229,-0.557298 3.5980434,3.5980434 0 0 1 0.4693825,-0.44405 0.94673657,0.94673657 0 0 1 0.4440502,-0.196694 1.2200901,1.2200901 0 0 1 0.5155752,0.02533 1.0645231,1.0645231 0 0 1 0.44405,0.250338 c 0.151122,0.13112 0.310333,0.320107 0.5081246,0.533455 a 2.9646633,2.9646633 0 0 0 0.774853,0.636274 2.3179489,2.3179489 0 0 0 2.133826,0 2.9424395,2.9424395 0 0 0 0.777833,-0.636274 c 0.197792,-0.222238 0.352533,-0.402335 0.503655,-0.533455 a 1.1289722,1.1289722 0 0 1 0.44554,-0.250338 1.2556483,1.2556483 0 0 1 0.515575,-0.02235 0.94673657,0.94673657 0 0 1 0.44405,0.195203 3.7780567,3.7780567 0 0 1 0.469383,0.44405 4.3180966,4.3180966 0 0 0 0.607962,0.555808 2.042373,2.042373 0 0 0 0.838927,0.360605 2.3690638,2.3690638 0 0 0 0.847868,0 2.111267,2.111267 0 0 0 0.762932,-0.312922 2.8424321,2.8424321 0 0 0 0.524516,-0.476832 7.3961017,7.3961017 0 0 1 0.666075,-0.756972 1.2912065,1.2912065 0 0 1 0.645214,-0.302491 c 0.06001,0 0.110242,-0.162658 0.105798,-0.333783 -0.0044,-0.171123 -0.06605,-0.272688 -0.1505,-0.272688 a 1.8090225,1.8090225 0 0 0 -1.038602,0.29504 6.1004504,6.1004504 0 0 0 -0.865749,0.758462 1.984591,1.984591 0 0 1 -0.391897,0.298021 1.1445289,1.1445289 0 0 1 -0.420208,0.131128 h -0.239906 a 1.3334318,1.3334318 0 0 1 -0.236927,-0.04023 1.0045186,1.0045186 0 0 1 -0.415738,-0.222025 3.2935765,3.2935765 0 0 1 -0.42915,-0.445541 4.6670113,4.6670113 0 0 0 -0.58859,-0.576669 2.0779312,2.0779312 0 0 0 -0.922373,-0.445541 2.3557295,2.3557295 0 0 0 -0.467892,-0.04917 z"
     inkscape:connector-curvature="0" />
</svg>
