<?xml version="1.0" encoding="UTF-8" standalone="no"?>
<svg
   xmlns:dc="http://purl.org/dc/elements/1.1/"
   xmlns:cc="http://creativecommons.org/ns#"
   xmlns:rdf="http://www.w3.org/1999/02/22-rdf-syntax-ns#"
   xmlns:svg="http://www.w3.org/2000/svg"
   xmlns="http://www.w3.org/2000/svg"
   xmlns:sodipodi="http://sodipodi.sourceforge.net/DTD/sodipodi-0.dtd"
   xmlns:inkscape="http://www.inkscape.org/namespaces/inkscape"
   version="1.1"
   x="0px"
   y="0px"
   viewBox="0 0 24 24"
   enable-background="new 0 0 96 96"
   xml:space="preserve"
   id="svg72"
   sodipodi:docname="recent-construction.svg"
   width="24"
   height="24"
   inkscape:version="0.92.3 (2405546, 2018-03-11)"><metadata
     id="metadata78"><rdf:RDF><cc:Work
         rdf:about=""><dc:format>image/svg+xml</dc:format><dc:type
           rdf:resource="http://purl.org/dc/dcmitype/StillImage" /><dc:title></dc:title></cc:Work></rdf:RDF></metadata><defs
     id="defs76" /><sodipodi:namedview
     pagecolor="#ffffff"
     bordercolor="#666666"
     borderopacity="1"
     objecttolerance="10"
     gridtolerance="10"
     guidetolerance="10"
     inkscape:pageopacity="0"
     inkscape:pageshadow="2"
     inkscape:window-width="1918"
     inkscape:window-height="1034"
     id="namedview74"
     showgrid="false"
     inkscape:zoom="11.125147"
     inkscape:cx="-1.0834366"
     inkscape:cy="3.0856997"
     inkscape:window-x="0"
     inkscape:window-y="22"
     inkscape:window-maximized="0"
     inkscape:current-layer="svg72" /><path
     id="rect2"
     style="stroke-width:0.26529831"
     d="M 11.934995,3.0715508 1.3874525,7.7156748 1.466064,7.8940618 2.4441721,7.4632109 V 20.928449 H 21.55583 V 7.4632109 l 0.978107,0.4308509 0.07861,-0.1798987 -10.547542,-4.6426123 z m 0.06501,0.1844345 9.360812,4.1210555 V 20.733432 H 13.36663 13.232084 12.263046 11.865454 9.528275 9.130683 6.7935029 6.3959103 4.0587308 3.6611381 2.5590658 V 10.123907 h 0.080123 V 7.3770408 Z m 0,0.1844346 -9.191494,4.0469792 v 2.6032489 h 5.1233518 v 1.336396 H 9.298493 v 1.336394 h 1.368141 v 1.336396 h 1.366631 v 1.336394 h 1.368142 v 5.127887 H 21.1915 V 7.4873991 Z m 0,0.2207169 8.988919,3.9577854 V 20.363052 h -7.386455 v -5.1294 H 12.235835 V 13.897258 H 10.869204 V 12.560862 H 9.501063 V 11.224467 H 8.134433 V 9.8880721 H 3.0110818 V 7.6204339 Z M 2.8281589,10.258453 v 0.938803 h 2.1996094 v -0.938803 z m 2.5987138,0 v 0.938803 h 2.3356681 v -0.938803 z m -2.5987138,1.336395 v 0.938803 h 0.8329792 v -0.938803 z m 1.2320836,0 v 0.938803 h 2.3356678 v -0.938803 z m 2.7332604,0 v 0.938803 H 9.130683 v -0.938803 z m -3.965344,1.336396 v 0.938802 h 2.1996094 v -0.938802 z m 2.5987138,0 v 0.938802 h 2.3356681 v -0.938802 z m 2.7347725,0 v 0.938802 h 2.3371788 v -0.938802 z m -4.1014027,1.336395 v 0.938802 h 2.3356678 v -0.938802 z m 2.7332604,0 v 0.938802 H 9.130683 v -0.938802 z m 2.7347721,0 v 0.938802 h 2.337179 v -0.938802 z m -6.7001161,0.0015 v 0.93729 h 0.8329792 v -0.93729 z m 0,1.334883 v 0.938803 h 2.1996094 v -0.938839 z m 2.5987138,0 v 0.938803 h 2.3356681 v -0.938839 z m 2.7347725,0 v 0.938803 h 2.3371788 v -0.938839 z m 2.7347708,0 v 0.938803 h 2.335668 V 15.603986 Z M 2.8281589,16.94038 v 0.938803 H 3.6611381 V 16.94038 Z m 1.2320836,0 v 0.938803 H 6.3959103 V 16.94038 Z m 2.7332604,0 v 0.938803 H 9.130683 V 16.94038 Z m 2.7347721,0 v 0.938803 h 2.337179 V 16.94038 Z m 2.734772,0 v 0.938803 h 0.969037 V 16.94038 Z m -9.4348881,1.336396 v 0.938802 h 2.1996094 v -0.938802 z m 2.5987138,0 v 0.938802 h 2.3356681 v -0.938802 z m 2.7347725,0 v 0.938802 h 2.3371788 v -0.938802 z m 2.7347718,0 v 0.938802 h 2.335668 v -0.938802 z m -8.0682581,1.336395 v 0.849609 h 0.8329792 v -0.849609 z m 1.2305719,0 v 0.849609 h 2.3371795 v -0.849609 z m 2.7347721,0 V 20.46278 H 9.130683 v -0.849609 z m 2.7347721,0 v 0.849609 h 2.337179 v -0.849609 z m 2.734772,0 v 0.849609 h 0.969037 v -0.849609 z"
     inkscape:connector-curvature="0" /></svg>