<svg xmlns="http://www.w3.org/2000/svg" xmlns:xlink="http://www.w3.org/1999/xlink" version="1.1" x="0px" y="0px" viewBox="0 0 64 80" style="enable-background:new 0 0 64 64;" xml:space="preserve"><path d="M61,28H49V3c0-0.552-0.448-1-1-1H16c-0.552,0-1,0.448-1,1v25H3c-0.552,0-1,0.448-1,1v32c0,0.552,0.448,1,1,1h13h11h10h11h13  c0.552,0,1-0.448,1-1V29C62,28.448,61.552,28,61,28z M4,30h11v30H4V30z M17,29V4h30v25v31h-9V49c0-0.552-0.448-1-1-1H27  c-0.552,0-1,0.448-1,1v11h-9V29z M28,60V50h8v10H28z M60,60H49V30h11V60z"/><path d="M27,15h2v2c0,0.552,0.448,1,1,1h4c0.552,0,1-0.448,1-1v-2h2c0.552,0,1-0.448,1-1v-4c0-0.552-0.448-1-1-1h-2V7  c0-0.552-0.448-1-1-1h-4c-0.552,0-1,0.448-1,1v2h-2c-0.552,0-1,0.448-1,1v4C26,14.552,26.448,15,27,15z M28,11h2  c0.552,0,1-0.448,1-1V8h2v2c0,0.552,0.448,1,1,1h2v2h-2c-0.552,0-1,0.448-1,1v2h-2v-2c0-0.552-0.448-1-1-1h-2V11z"/><rect x="6" y="32" width="2" height="2"/><rect x="11" y="32" width="2" height="2"/><rect x="6" y="36" width="2" height="2"/><rect x="11" y="36" width="2" height="2"/><rect x="6" y="40" width="2" height="2"/><rect x="11" y="40" width="2" height="2"/><rect x="6" y="44" width="2" height="2"/><rect x="11" y="44" width="2" height="2"/><rect x="6" y="48" width="2" height="2"/><rect x="11" y="48" width="2" height="2"/><rect x="6" y="52" width="2" height="2"/><rect x="11" y="52" width="2" height="2"/><rect x="51" y="32" width="2" height="2"/><rect x="56" y="32" width="2" height="2"/><rect x="51" y="36" width="2" height="2"/><rect x="56" y="36" width="2" height="2"/><rect x="51" y="40" width="2" height="2"/><rect x="56" y="40" width="2" height="2"/><rect x="51" y="44" width="2" height="2"/><rect x="56" y="44" width="2" height="2"/><rect x="51" y="48" width="2" height="2"/><rect x="56" y="48" width="2" height="2"/><rect x="51" y="52" width="2" height="2"/><rect x="56" y="52" width="2" height="2"/><path d="M24,20h-4c-0.552,0-1,0.448-1,1v4c0,0.552,0.448,1,1,1h4c0.552,0,1-0.448,1-1v-4C25,20.448,24.552,20,24,20z M23,24h-2v-2h2  V24z"/><path d="M34,20h-4c-0.552,0-1,0.448-1,1v4c0,0.552,0.448,1,1,1h4c0.552,0,1-0.448,1-1v-4C35,20.448,34.552,20,34,20z M33,24h-2v-2h2  V24z"/><path d="M40,26h4c0.552,0,1-0.448,1-1v-4c0-0.552-0.448-1-1-1h-4c-0.552,0-1,0.448-1,1v4C39,25.552,39.448,26,40,26z M41,22h2v2h-2  V22z"/><path d="M24,30h-4c-0.552,0-1,0.448-1,1v4c0,0.552,0.448,1,1,1h4c0.552,0,1-0.448,1-1v-4C25,30.448,24.552,30,24,30z M23,34h-2v-2h2  V34z"/><path d="M34,30h-4c-0.552,0-1,0.448-1,1v4c0,0.552,0.448,1,1,1h4c0.552,0,1-0.448,1-1v-4C35,30.448,34.552,30,34,30z M33,34h-2v-2h2  V34z"/><path d="M40,36h4c0.552,0,1-0.448,1-1v-4c0-0.552-0.448-1-1-1h-4c-0.552,0-1,0.448-1,1v4C39,35.552,39.448,36,40,36z M41,32h2v2h-2  V32z"/><path d="M24,40h-4c-0.552,0-1,0.448-1,1v4c0,0.552,0.448,1,1,1h4c0.552,0,1-0.448,1-1v-4C25,40.448,24.552,40,24,40z M23,44h-2v-2h2  V44z"/><path d="M34,40h-4c-0.552,0-1,0.448-1,1v4c0,0.552,0.448,1,1,1h4c0.552,0,1-0.448,1-1v-4C35,40.448,34.552,40,34,40z M33,44h-2v-2h2  V44z"/><path d="M40,46h4c0.552,0,1-0.448,1-1v-4c0-0.552-0.448-1-1-1h-4c-0.552,0-1,0.448-1,1v4C39,45.552,39.448,46,40,46z M41,42h2v2h-2  V42z"/><text x="0" y="79" fill="#000000" font-size="5px" font-weight="bold" font-family="'Helvetica Neue', Helvetica, Arial-Unicode, Arial, Sans-serif">Created by Becris</text><text x="0" y="84" fill="#000000" font-size="5px" font-weight="bold" font-family="'Helvetica Neue', Helvetica, Arial-Unicode, Arial, Sans-serif">from the Noun Project</text></svg>