<svg xmlns="http://www.w3.org/2000/svg" xmlns:xlink="http://www.w3.org/1999/xlink" version="1.1" x="0px" y="0px" viewBox="0 0 100 125" enable-background="new 0 0 100 100" xml:space="preserve"><g><path d="M88.18,80.833h-4.514c-0.828,0-1.5-0.671-1.5-1.5s0.672-1.5,1.5-1.5h4.514c0.828,0,1.5,0.671,1.5,1.5   S89.008,80.833,88.18,80.833z M78.18,80.833h-4.514c-0.828,0-1.5-0.671-1.5-1.5s0.672-1.5,1.5-1.5h4.514c0.828,0,1.5,0.671,1.5,1.5   S79.008,80.833,78.18,80.833z M69.18,80.833h-4.514c-0.828,0-1.5-0.671-1.5-1.5s0.672-1.5,1.5-1.5h4.514c0.828,0,1.5,0.671,1.5,1.5   S70.008,80.833,69.18,80.833z M60.18,80.833h-4.514c-0.828,0-1.5-0.671-1.5-1.5s0.672-1.5,1.5-1.5h4.514c0.828,0,1.5,0.671,1.5,1.5   S61.008,80.833,60.18,80.833z M51.18,80.833h-4.514c-0.828,0-1.5-0.671-1.5-1.5s0.672-1.5,1.5-1.5h4.514c0.828,0,1.5,0.671,1.5,1.5   S52.008,80.833,51.18,80.833z M42.18,80.833h-4.514c-0.828,0-1.5-0.671-1.5-1.5s0.672-1.5,1.5-1.5h4.514c0.828,0,1.5,0.671,1.5,1.5   S43.008,80.833,42.18,80.833z M33.18,80.833h-4.514c-0.828,0-1.5-0.671-1.5-1.5s0.672-1.5,1.5-1.5h4.514c0.828,0,1.5,0.671,1.5,1.5   S34.008,80.833,33.18,80.833z M24.18,80.833h-4.514c-0.828,0-1.5-0.671-1.5-1.5s0.672-1.5,1.5-1.5h4.514c0.828,0,1.5,0.671,1.5,1.5   S25.008,80.833,24.18,80.833z M15.18,80.833h-4.514c-0.828,0-1.5-0.671-1.5-1.5s0.672-1.5,1.5-1.5h4.514c0.828,0,1.5,0.671,1.5,1.5   S16.008,80.833,15.18,80.833z M88.18,75.833h-4.514c-0.828,0-1.5-0.671-1.5-1.5s0.672-1.5,1.5-1.5h4.514c0.828,0,1.5,0.671,1.5,1.5   S89.008,75.833,88.18,75.833z M78.18,75.833h-4.514c-0.828,0-1.5-0.671-1.5-1.5s0.672-1.5,1.5-1.5h4.514c0.828,0,1.5,0.671,1.5,1.5   S79.008,75.833,78.18,75.833z M69.18,75.833h-4.514c-0.828,0-1.5-0.671-1.5-1.5s0.672-1.5,1.5-1.5h4.514c0.828,0,1.5,0.671,1.5,1.5   S70.008,75.833,69.18,75.833z M60.18,75.833h-4.514c-0.828,0-1.5-0.671-1.5-1.5s0.672-1.5,1.5-1.5h4.514c0.828,0,1.5,0.671,1.5,1.5   S61.008,75.833,60.18,75.833z M51.18,75.833h-4.514c-0.828,0-1.5-0.671-1.5-1.5s0.672-1.5,1.5-1.5h4.514c0.828,0,1.5,0.671,1.5,1.5   S52.008,75.833,51.18,75.833z M42.18,75.833h-4.514c-0.828,0-1.5-0.671-1.5-1.5s0.672-1.5,1.5-1.5h4.514c0.828,0,1.5,0.671,1.5,1.5   S43.008,75.833,42.18,75.833z M33.18,75.833h-4.514c-0.828,0-1.5-0.671-1.5-1.5s0.672-1.5,1.5-1.5h4.514c0.828,0,1.5,0.671,1.5,1.5   S34.008,75.833,33.18,75.833z M24.18,75.833h-4.514c-0.828,0-1.5-0.671-1.5-1.5s0.672-1.5,1.5-1.5h4.514c0.828,0,1.5,0.671,1.5,1.5   S25.008,75.833,24.18,75.833z M15.18,75.833h-4.514c-0.828,0-1.5-0.671-1.5-1.5s0.672-1.5,1.5-1.5h4.514c0.828,0,1.5,0.671,1.5,1.5   S16.008,75.833,15.18,75.833z M88.18,70.833h-4.514c-0.828,0-1.5-0.671-1.5-1.5s0.672-1.5,1.5-1.5h4.514c0.828,0,1.5,0.671,1.5,1.5   S89.008,70.833,88.18,70.833z M78.18,70.833h-4.514c-0.828,0-1.5-0.671-1.5-1.5s0.672-1.5,1.5-1.5h4.514c0.828,0,1.5,0.671,1.5,1.5   S79.008,70.833,78.18,70.833z M69.18,70.833h-4.514c-0.828,0-1.5-0.671-1.5-1.5s0.672-1.5,1.5-1.5h4.514c0.828,0,1.5,0.671,1.5,1.5   S70.008,70.833,69.18,70.833z M60.18,70.833h-4.514c-0.828,0-1.5-0.671-1.5-1.5s0.672-1.5,1.5-1.5h4.514c0.828,0,1.5,0.671,1.5,1.5   S61.008,70.833,60.18,70.833z M51.18,70.833h-4.514c-0.828,0-1.5-0.671-1.5-1.5s0.672-1.5,1.5-1.5h4.514c0.828,0,1.5,0.671,1.5,1.5   S52.008,70.833,51.18,70.833z M42.18,70.833h-4.514c-0.828,0-1.5-0.671-1.5-1.5s0.672-1.5,1.5-1.5h4.514c0.828,0,1.5,0.671,1.5,1.5   S43.008,70.833,42.18,70.833z M33.18,70.833h-4.514c-0.828,0-1.5-0.671-1.5-1.5s0.672-1.5,1.5-1.5h4.514c0.828,0,1.5,0.671,1.5,1.5   S34.008,70.833,33.18,70.833z M24.18,70.833h-4.514c-0.828,0-1.5-0.671-1.5-1.5s0.672-1.5,1.5-1.5h4.514c0.828,0,1.5,0.671,1.5,1.5   S25.008,70.833,24.18,70.833z M15.18,70.833h-4.514c-0.828,0-1.5-0.671-1.5-1.5s0.672-1.5,1.5-1.5h4.514c0.828,0,1.5,0.671,1.5,1.5   S16.008,70.833,15.18,70.833z M91,66.431H8.666c-0.828,0-1.5-0.671-1.5-1.5s0.672-1.5,1.5-1.5h8.073   c-0.02-1.314,0.215-3.41,1.338-6.274c0.292-0.745,0.554-1.368,0.778-1.905c0.905-2.16,1.053-2.511,0.319-4.121   c-1.174-0.949-6.412-5.563-5.357-11.593c0.126-0.719,0.751-1.242,1.478-1.242c0.012,0,0.024,0,0.037,0   c0.236,0.006,2.361,0.115,4.164,2.123c1.814,2.02,2.598,5.155,2.328,9.323c1.278,2.89,0.969,3.876-0.202,6.669   c-0.217,0.519-0.47,1.12-0.752,1.84c-0.995,2.537-1.147,4.264-1.129,5.178h22.305c-0.063-0.318-0.135-0.825-0.146-1.52   c-2.22-0.028-3.596-0.935-4.382-1.741c-2.389-2.447-2.041-6.432-1.993-6.878c0.047-0.445,0.29-0.846,0.664-1.092   c0.372-0.248,0.836-0.315,1.265-0.184c2.585,0.789,4.244,2.809,5.256,4.626c0.219-0.75,0.492-1.56,0.833-2.428   c0.405-1.034,0.709-1.97,0.917-2.841c-1.497-0.028-2.584-0.547-3.301-1.066c-2.77-2.005-3.105-5.991-3.135-6.439   c-0.029-0.447,0.143-0.883,0.469-1.189s0.771-0.451,1.216-0.396c1.671,0.21,3.068,0.953,4.201,1.875   c-0.13-0.335-0.272-0.678-0.427-1.03c-1.594-1.357-6.29-5.916-5.268-11.757c0.126-0.719,0.751-1.241,1.478-1.241   c0.012,0,0.024,0,0.037,0c0.243,0.006,2.427,0.119,4.283,2.185c1.924,2.141,2.724,5.5,2.38,9.985   c0.244,0.577,0.461,1.138,0.646,1.692c1.191-1.811,2.952-3.605,5.478-4.375c0.428-0.132,0.892-0.063,1.265,0.184   c0.374,0.247,0.617,0.647,0.664,1.092c0.022,0.206,0.504,5.067-2.282,7.923c-1.166,1.195-2.683,1.853-4.521,1.964   c-0.211,1.297-0.604,2.693-1.202,4.261c1.727-1.438,4.056-2.721,6.834-2.664c0.447,0.009,0.867,0.218,1.145,0.569   c0.277,0.351,0.384,0.807,0.29,1.245c-0.044,0.202-1.103,4.972-4.642,6.815c-1.551,0.808-3.282,0.937-5.158,0.386   c-0.032,1.022,0.1,1.541,0.103,1.552c0.044,0.163,0.06,0.327,0.05,0.487h33.012v-2.323c-1.553,0.01-2.781-0.417-3.729-1.305   c-1.995-1.869-1.664-4.883-1.62-5.22c0.104-0.799,0.815-1.374,1.625-1.298c1.526,0.14,2.758,0.799,3.725,1.619V52.71   c-2.523,0.203-4.542-0.389-6.008-1.762c-2.844-2.663-2.286-7.197-2.261-7.389c0.104-0.8,0.833-1.38,1.625-1.299   c2.93,0.27,5.114,1.886,6.644,3.614V41.65c-3.002,0.458-5.354-0.096-7.008-1.645c-2.844-2.663-2.286-7.197-2.261-7.389   c0.104-0.8,0.828-1.379,1.625-1.299c3.643,0.336,6.133,2.751,7.644,4.877v-4.027c-1.439-0.176-6.411-1.301-9.276-8.444   c-0.176-0.441-0.134-0.939,0.114-1.343s0.673-0.667,1.146-0.709c1.582-0.141,4.159,0.331,6.354,2.275   c0.163-1.862,0.791-4.064,2.204-6.603c0.238-0.429,0.672-0.714,1.16-0.763c0.496-0.045,0.97,0.144,1.289,0.517   c1.174,1.369,2.555,4.04,2.521,7.254c1.37-1.321,3.23-2.513,5.738-3.148c0.452-0.115,0.938-0.011,1.306,0.283   c0.366,0.294,0.574,0.742,0.562,1.212c-0.087,3.245-2.227,9.411-9.695,9.525c-0.123,0.006-0.286-0.016-0.423-0.054v4.84   c1.422-2.271,4.067-5.311,8.187-5.69c0.791-0.081,1.521,0.499,1.625,1.299c0.025,0.191,0.583,4.726-2.261,7.389   c-1.752,1.64-4.292,2.164-7.551,1.552v6.394c1.422-2.272,4.067-5.311,8.187-5.69c0.791-0.081,1.521,0.499,1.625,1.299   c0.025,0.191,0.583,4.726-2.261,7.389c-1.752,1.642-4.292,2.163-7.551,1.553v4.093c1.045-1.448,2.759-3.078,5.267-3.309   c0.807-0.076,1.521,0.499,1.625,1.299c0.044,0.337,0.375,3.351-1.621,5.22c-1.249,1.171-3.025,1.555-5.271,1.146v2.48H91   c0.828,0,1.5,0.671,1.5,1.5S91.828,66.431,91,66.431z M46.938,58.72c0.638,0.029,1.213-0.099,1.742-0.374   c1.042-0.543,1.779-1.593,2.271-2.57C49.259,56.408,47.869,57.673,46.938,58.72z M38.723,56.231   c0.177,0.689,0.472,1.365,0.947,1.85c0.194,0.198,0.415,0.359,0.663,0.486C39.952,57.795,39.424,56.941,38.723,56.231z    M76.019,57.097c0.099,0.197,0.224,0.377,0.382,0.523c0.128,0.119,0.276,0.211,0.438,0.282   C76.6,57.618,76.326,57.341,76.019,57.097z M84.667,57.098c-0.306,0.243-0.579,0.52-0.817,0.804   c0.161-0.071,0.309-0.164,0.437-0.281C84.443,57.475,84.568,57.295,84.667,57.098z M72.79,45.64   c0.108,1.026,0.437,2.292,1.334,3.126c0.712,0.663,1.738,1.017,3.068,0.982C76.338,48.335,74.877,46.462,72.79,45.64z    M83.495,49.749c1.287,0.015,2.364-0.322,3.077-0.99c0.889-0.832,1.215-2.095,1.323-3.118   C85.81,46.463,84.349,48.334,83.495,49.749z M41.676,46.22c0.291,0.649,0.696,1.265,1.248,1.662   c0.225,0.162,0.47,0.284,0.736,0.367C43.153,47.552,42.487,46.8,41.676,46.22z M51.369,43.571   c-1.409,1.129-2.334,2.764-2.892,4.047c0.608-0.172,1.115-0.468,1.531-0.893C50.805,45.915,51.194,44.691,51.369,43.571z    M16.732,41.933c0.222,1.747,1.118,3.311,2.05,4.513c-0.192-1.716-0.686-3.058-1.464-3.959   C17.125,42.262,16.927,42.08,16.732,41.933z M71.79,34.697c0.108,1.026,0.437,2.292,1.334,3.126   c0.712,0.662,1.743,0.986,3.068,0.982C75.338,37.392,73.877,35.52,71.79,34.697z M83.487,38.805c1.318,0.003,2.37-0.32,3.085-0.989   c0.89-0.833,1.216-2.098,1.324-3.121C85.796,35.516,84.337,37.391,83.487,38.805z M41.112,33.721   c0.21,1.958,1.241,3.703,2.281,5.007c-0.189-1.932-0.732-3.429-1.612-4.408C41.56,34.072,41.332,33.876,41.112,33.721z    M87.682,25.038c-1.92,1.051-3.106,2.557-3.814,3.801C86.07,28.106,87.15,26.456,87.682,25.038z M72.887,25.17   c1.051,1.629,2.204,2.601,3.195,3.18C75.172,26.583,73.966,25.654,72.887,25.17z M80.062,21.353   c-1.033,2.88-0.724,4.944-0.208,6.245C80.967,25.111,80.638,22.903,80.062,21.353z"/></g><text x="0" y="115" fill="#000000" font-size="5px" font-weight="bold" font-family="'Helvetica Neue', Helvetica, Arial-Unicode, Arial, Sans-serif">Created by IconTrack</text><text x="0" y="120" fill="#000000" font-size="5px" font-weight="bold" font-family="'Helvetica Neue', Helvetica, Arial-Unicode, Arial, Sans-serif">from the Noun Project</text></svg>