<svg xmlns="http://www.w3.org/2000/svg" data-name="Layer 1" viewBox="0 0 100 125" x="0px" y="0px"><title>UIdrawing</title><path d="M40,51h3.08A7,7,0,0,0,49,56.92V60a1,1,0,0,0,2,0V56.92A7,7,0,0,0,56.92,51H60a1,1,0,0,0,0-2H56.92A7,7,0,0,0,51,43.08V40a1,1,0,0,0-2,0v3.08A7,7,0,0,0,43.08,49H40a1,1,0,0,0,0,2Zm10-6a5,5,0,1,1-5,5A5,5,0,0,1,50,45Zm-2,5a2,2,0,1,1,2,2A2,2,0,0,1,48,50Zm3.27-30.62L55,15.71a1,1,0,0,0-1.42-1.42L48,19.84a1,1,0,0,0,0,1.42l5.55,5.55a1,1,0,0,0,.71.29,1,1,0,0,0,.71-.29,1,1,0,0,0,0-1.42l-4-4A29,29,0,1,1,21,50.86a4,4,0,1,0-2,0A31,31,0,1,0,51.27,19.38ZM18,47a2,2,0,1,1,2,2A2,2,0,0,1,18,47Z"/><text x="0" y="115" fill="#000000" font-size="5px" font-weight="bold" font-family="'Helvetica Neue', Helvetica, Arial-Unicode, Arial, Sans-serif">Created by Somewan</text><text x="0" y="120" fill="#000000" font-size="5px" font-weight="bold" font-family="'Helvetica Neue', Helvetica, Arial-Unicode, Arial, Sans-serif">from the Noun Project</text></svg>