<svg xmlns="http://www.w3.org/2000/svg" xmlns:xlink="http://www.w3.org/1999/xlink" version="1.1" x="0px" y="0px" viewBox="0 0 96 120" enable-background="new 0 0 96 96" xml:space="preserve"><g><rect x="33.531" y="51.513" width="8.808" height="3.538"/><rect x="38.684" y="56.55" width="8.808" height="3.537"/><rect x="28.377" y="66.624" width="8.807" height="3.538"/><rect x="18.07" y="46.475" width="8.807" height="3.538"/><rect x="28.377" y="46.475" width="8.807" height="3.538"/><rect x="18.07" y="56.549" width="8.808" height="3.538"/><rect x="13.43" y="46.476" width="3.138" height="3.537"/><rect x="23.222" y="41.437" width="8.808" height="3.537"/><rect x="38.684" y="66.624" width="8.808" height="3.538"/><rect x="33.531" y="61.588" width="8.808" height="3.538"/><rect x="13.43" y="51.513" width="8.292" height="3.538"/><rect x="13.43" y="41.438" width="8.291" height="3.537"/><rect x="23.223" y="51.513" width="8.807" height="3.538"/><rect x="23.222" y="61.588" width="8.808" height="3.538"/><rect x="28.377" y="56.549" width="8.807" height="3.538"/><rect x="18.07" y="66.624" width="8.807" height="3.538"/><rect x="48.991" y="66.624" width="3.653" height="3.538"/><rect x="13.43" y="56.551" width="3.138" height="3.538"/><rect x="48.991" y="76.7" width="3.653" height="3.202"/><rect x="33.531" y="71.662" width="8.808" height="3.538"/><rect x="38.684" y="76.7" width="8.808" height="3.202"/><rect x="43.838" y="61.588" width="8.807" height="3.538"/><path d="M48.246,14.347h-0.492L8,31.849l0.296,0.672l3.685-1.621v50.754h72.037V30.9l3.686,1.621L88,31.848L48.246,14.347z    M83.283,80.92h-30.13h-0.509h-3.653h-1.5h-8.808h-1.5h-8.807h-1.5h-8.809h-1.501h-4.153V40.93h0.303V30.576L48,15.044   l35.283,15.532V80.92z"/><path d="M13.352,30.993v9.811l19.313-0.001v5.037h5.154v5.038h5.155v5.038h5.153v5.037h5.153v19.331h29.367V30.992L48,15.738   L13.352,30.993z M81.885,79.521H54.043V60.19H48.89v-5.037h-5.153v-5.038h-5.155v-5.038h-5.154V40.04l-19.313,0.001V31.49   L48,16.571l33.885,14.918V79.521z"/><rect x="43.838" y="71.662" width="8.807" height="3.538"/><rect x="13.43" y="66.624" width="3.137" height="3.539"/><rect x="13.43" y="76.7" width="3.137" height="3.202"/><rect x="13.43" y="61.586" width="8.291" height="3.539"/><rect x="23.223" y="71.662" width="8.807" height="3.538"/><rect x="13.43" y="71.662" width="8.291" height="3.538"/><rect x="18.068" y="76.7" width="8.809" height="3.202"/><rect x="28.377" y="76.7" width="8.807" height="3.202"/></g><text x="0" y="111" fill="#000000" font-size="5px" font-weight="bold" font-family="'Helvetica Neue', Helvetica, Arial-Unicode, Arial, Sans-serif">Created by designvector</text><text x="0" y="116" fill="#000000" font-size="5px" font-weight="bold" font-family="'Helvetica Neue', Helvetica, Arial-Unicode, Arial, Sans-serif">from the Noun Project</text></svg>