<svg xmlns="http://www.w3.org/2000/svg" xmlns:xlink="http://www.w3.org/1999/xlink" version="1.1" x="0px" y="0px" viewBox="0 0 100 125" enable-background="new 0 0 100 100" xml:space="preserve"><path d="M50.799,53.134V49.33c0-0.443-0.358-0.801-0.799-0.801s-0.798,0.358-0.798,0.801v4.604c0,0.438,0.356,0.797,0.798,0.797  h4.229c0.44,0,0.801-0.358,0.801-0.797c0-0.441-0.36-0.8-0.801-0.8H50.799z"/><path d="M94.277,51.521H66.531L50,36.525L33.467,51.521H5.722C5.203,51.521,5,51.725,5,52.243v34.539  c0,0.958,0.486,1.444,1.444,1.444h35.837c0.332,0,0.5-0.168,0.5-0.5V76.809c0-3.859,2.961-6.793,7.219-6.793  s7.219,2.933,7.219,6.793v10.916c0,0.332,0.168,0.5,0.5,0.5h35.838c0.957,0,1.443-0.485,1.443-1.443V52.243  C95,51.725,94.797,51.521,94.277,51.521z M20.811,79.766c0,0.387-0.196,0.586-0.583,0.586h-7.589c-0.389,0-0.587-0.199-0.587-0.586  v-7.652c0-0.387,0.198-0.586,0.587-0.586h7.589c0.388,0,0.583,0.199,0.583,0.586V79.766z M20.811,65.602  c0,0.39-0.196,0.586-0.583,0.586h-7.589c-0.389,0-0.587-0.196-0.587-0.586v-7.649c0-0.39,0.198-0.586,0.587-0.586h7.589  c0.388,0,0.583,0.196,0.583,0.586V65.602z M35.335,79.766c0,0.387-0.196,0.586-0.585,0.586h-7.589c-0.388,0-0.585-0.199-0.585-0.586  v-7.652c0-0.387,0.198-0.586,0.585-0.586h7.589c0.389,0,0.585,0.199,0.585,0.586V79.766z M35.335,65.602  c0,0.39-0.196,0.586-0.585,0.586h-7.589c-0.388,0-0.585-0.196-0.585-0.586v-7.649c0-0.39,0.198-0.586,0.585-0.586h7.589  c0.389,0,0.585,0.196,0.585,0.586V65.602z M49.999,60.318c-3.527,0-6.385-2.86-6.385-6.385c0-3.527,2.858-6.388,6.385-6.388  c3.53,0,6.39,2.859,6.39,6.388C56.389,57.458,53.529,60.318,49.999,60.318z M73.424,79.766c0,0.387-0.197,0.586-0.585,0.586H65.25  c-0.389,0-0.585-0.199-0.585-0.586v-7.652c0-0.387,0.196-0.586,0.585-0.586h7.589c0.388,0,0.585,0.199,0.585,0.586V79.766z   M73.424,65.602c0,0.39-0.197,0.586-0.585,0.586H65.25c-0.389,0-0.585-0.196-0.585-0.586v-7.649c0-0.39,0.196-0.586,0.585-0.586  h7.589c0.388,0,0.585,0.196,0.585,0.586V65.602z M87.949,79.766c0,0.387-0.198,0.586-0.588,0.586h-7.588  c-0.389,0-0.584-0.199-0.584-0.586v-7.652c0-0.387,0.197-0.586,0.584-0.586h7.588c0.39,0,0.588,0.199,0.588,0.586V79.766z   M87.949,65.602c0,0.39-0.198,0.586-0.588,0.586h-7.588c-0.389,0-0.584-0.196-0.584-0.586v-7.649c0-0.39,0.197-0.586,0.584-0.586  h7.588c0.39,0,0.588,0.196,0.588,0.586V65.602z"/><path d="M52.915,23.449c4.739-2.873,8.56,1.393,13.463-1.316c0.151-0.085,0.272-0.229,0.272-0.472v-9.594  c0-0.26-0.18-0.363-0.412-0.24c-4.883,2.578-8.7-1.687-13.459,1.323c-0.146,0.094-0.262,0.247-0.262,0.49v9.594  C52.518,23.494,52.691,23.584,52.915,23.449z"/><path d="M94.466,44.252l-9.11-8.263c-0.766-0.696-1.475-0.97-2.513-0.97H60.318L51.1,26.657V13.021c0-0.604-0.492-1.098-1.1-1.098  c-0.607,0-1.1,0.494-1.1,1.098v13.637l-9.217,8.361l-22.526-0.003c-1.038,0-1.747,0.273-2.513,0.97l-9.111,8.261  C5.151,44.594,5,44.934,5,45.453v1.588c0,0.519,0.203,0.722,0.722,0.722l26.353,0.006L50,31.509l17.924,16.259h26.354  c0.52,0,0.723-0.203,0.723-0.722v-1.587C95,44.94,94.85,44.6,94.466,44.252z"/><text x="0" y="115" fill="#000000" font-size="5px" font-weight="bold" font-family="'Helvetica Neue', Helvetica, Arial-Unicode, Arial, Sans-serif">Created by David</text><text x="0" y="120" fill="#000000" font-size="5px" font-weight="bold" font-family="'Helvetica Neue', Helvetica, Arial-Unicode, Arial, Sans-serif">from the Noun Project</text></svg>