<svg xmlns:dc="http://purl.org/dc/elements/1.1/" xmlns:cc="http://creativecommons.org/ns#" xmlns:rdf="http://www.w3.org/1999/02/22-rdf-syntax-ns#" xmlns:svg="http://www.w3.org/2000/svg" xmlns="http://www.w3.org/2000/svg" xmlns:sodipodi="http://sodipodi.sourceforge.net/DTD/sodipodi-0.dtd" xmlns:inkscape="http://www.inkscape.org/namespaces/inkscape" version="1.1" x="0px" y="0px" viewBox="0 0 100 125"><g transform="translate(0,-952.36218)"><path style="text-indent:0;text-transform:none;direction:ltr;block-progression:tb;baseline-shift:baseline;color:#000000;enable-background:accumulate;" d="m 16.640625,973.5185 c -4.199899,0 -7.53125,3.29762 -7.53125,7.46875 l 0,26.65615 10.75,-9.09365 a 1.30013,1.30013 0 0 1 1.6875,0.0312 l 13.34375,11.34375 25.34375,-21.625 a 1.30013,1.30013 0 0 1 0.59375,-0.28125 1.30013,1.30013 0 0 1 1,0.21875 l 29.0625,20.3125 0,-27.5625 c 0,-4.17571 -3.331351,-7.46875 -7.53125,-7.46875 l -66.71875,0 z m 20.5625,7.28125 c 0.08876,0 0.16205,0.0595 0.25,0.0625 -2.533885,1.2326 -4.3125,3.7806 -4.3125,6.78125 0,3.01702 1.786775,5.60966 4.34375,6.84375 -0.09822,0.004 -0.18191,0.0625 -0.28125,0.0625 -3.798647,0 -6.84375,-3.09529 -6.84375,-6.90625 0,-3.81098 3.038581,-6.84375 6.84375,-6.84375 z m 23.96875,10.15625 -25.4375,21.6562 a 1.30013,1.30013 0 0 1 -1.6875,0 l -13.375,-11.375 -11.5625,9.7812 0,12.6563 c 0,4.1712 3.335883,7.5313 7.53125,7.5312 l 66.71875,0 c 4.195367,0 7.53125,-3.3554 7.53125,-7.5312 l 0,-11.9688 -29.71875,-20.7499 z" fill="#000000" fill-opacity="1" stroke="none" marker="none" visibility="visible" display="inline" overflow="visible"/></g><text x="0" y="115" fill="#000000" font-size="5px" font-weight="bold" font-family="'Helvetica Neue', Helvetica, Arial-Unicode, Arial, Sans-serif">Created by Nibras@design</text><text x="0" y="120" fill="#000000" font-size="5px" font-weight="bold" font-family="'Helvetica Neue', Helvetica, Arial-Unicode, Arial, Sans-serif">from the Noun Project</text></svg>