<svg xmlns="http://www.w3.org/2000/svg" data-name="Layer 1" viewBox="0 0 100 125" x="0px" y="0px"><title>Artboard 10</title><path d="M27.3,73.25a15.46,15.46,0,0,1-1.94,2,4.43,4.43,0,0,1-1.87,1,6,6,0,0,1-1.07.17,9.86,9.86,0,0,1-1.09,0,5.22,5.22,0,0,1-1.9-.6,8.93,8.93,0,0,1-1.76-1.34A27.45,27.45,0,0,0,13.77,71a8.1,8.1,0,0,0-4.66-1.31c-.4,0-.7.64-.66,1.39s.23,1.23.48,1.27a5.69,5.69,0,0,1,2.9,1.36,32.3,32.3,0,0,1,3,3.42,12.39,12.39,0,0,0,2.35,2.14,9.38,9.38,0,0,0,3.42,1.41,10.83,10.83,0,0,0,3.81,0,9.09,9.09,0,0,0,3.76-1.62A18.4,18.4,0,0,0,31,76.58a17.06,17.06,0,0,1,2.11-2,4.24,4.24,0,0,1,2-.87,5.49,5.49,0,0,1,2.32.1,4.93,4.93,0,0,1,2,1.14,33.09,33.09,0,0,1,2.28,2.4,13.32,13.32,0,0,0,3.49,2.85,10.35,10.35,0,0,0,9.6,0,13.22,13.22,0,0,0,3.5-2.85c.89-1,1.59-1.81,2.27-2.4a5,5,0,0,1,2-1.13,5.49,5.49,0,0,1,2.32-.1,4.34,4.34,0,0,1,2,.87,18.61,18.61,0,0,1,2.11,2,18.3,18.3,0,0,0,2.74,2.5,9.08,9.08,0,0,0,3.77,1.63,11.14,11.14,0,0,0,3.82,0,9.5,9.5,0,0,0,3.43-1.41,12.82,12.82,0,0,0,2.36-2.15,34.39,34.39,0,0,1,3-3.41,5.79,5.79,0,0,1,2.9-1.35c.27,0,.5-.74.48-1.51h0c0-.69-.3-1.22-.68-1.23A8.22,8.22,0,0,0,86.2,71a27.49,27.49,0,0,0-3.9,3.42,9.33,9.33,0,0,1-1.76,1.34,5.35,5.35,0,0,1-1.89.59,9.71,9.71,0,0,1-1.08,0,6,6,0,0,1-1.07-.17,4.43,4.43,0,0,1-1.87-1,14.11,14.11,0,0,1-1.93-2A20.36,20.36,0,0,0,70,70.55a9.35,9.35,0,0,0-4.15-2,10.6,10.6,0,0,0-4.62.07A10.21,10.21,0,0,0,57,70.86a33.41,33.41,0,0,0-2.74,2.78c-1.55,1.66-2.59,2.2-4.31,2.25s-2.76-.59-4.31-2.25a32,32,0,0,0-2.74-2.77,10.23,10.23,0,0,0-4.21-2.2,10.61,10.61,0,0,0-4.62-.07,9.35,9.35,0,0,0-4.15,2A20.86,20.86,0,0,0,27.3,73.25Z"/><path d="M8.93,89.89a5.61,5.61,0,0,1,2.9,1.36,32,32,0,0,1,3,3.41,12.39,12.39,0,0,0,2.35,2.14,9.39,9.39,0,0,0,3.42,1.42,10.61,10.61,0,0,0,3.81,0,9,9,0,0,0,3.76-1.62A18.4,18.4,0,0,0,31,94.09a16.19,16.19,0,0,1,2.11-2,4.26,4.26,0,0,1,2-.88,5.49,5.49,0,0,1,2.32.11,4.79,4.79,0,0,1,2,1.13c.68.59,1.39,1.44,2.28,2.4a13.34,13.34,0,0,0,3.49,2.86,10.43,10.43,0,0,0,9.6,0,13.24,13.24,0,0,0,3.5-2.86c.89-1,1.59-1.81,2.27-2.4a5.08,5.08,0,0,1,2-1.13,5.65,5.65,0,0,1,2.32-.1,4.26,4.26,0,0,1,2,.88,17,17,0,0,1,2.11,2,19.43,19.43,0,0,0,2.74,2.5,9.19,9.19,0,0,0,3.77,1.62,10.66,10.66,0,0,0,3.82,0,9.5,9.5,0,0,0,3.43-1.41,12.79,12.79,0,0,0,2.36-2.14,33.28,33.28,0,0,1,3-3.41,5.81,5.81,0,0,1,2.9-1.36c.27,0,.5-.73.48-1.5s-.3-1.23-.68-1.23a8.14,8.14,0,0,0-4.67,1.33,27.45,27.45,0,0,0-3.9,3.41,8.93,8.93,0,0,1-1.76,1.34,5.15,5.15,0,0,1-1.89.59c-.35,0-.72,0-1.08,0a6,6,0,0,1-1.07-.18,4.52,4.52,0,0,1-1.87-1,14.82,14.82,0,0,1-1.93-2A21,21,0,0,0,70,88.06a9.35,9.35,0,0,0-4.15-2,10.6,10.6,0,0,0-4.62.07A10.21,10.21,0,0,0,57,88.37a33.41,33.41,0,0,0-2.74,2.78c-1.55,1.66-2.59,2.2-4.31,2.26s-2.76-.59-4.31-2.26a35.07,35.07,0,0,0-2.74-2.77,10.23,10.23,0,0,0-4.21-2.2,10.61,10.61,0,0,0-4.62-.07,9.35,9.35,0,0,0-4.15,2,21.51,21.51,0,0,0-2.66,2.69,14.83,14.83,0,0,1-1.94,2,4.43,4.43,0,0,1-1.87,1,6,6,0,0,1-1.07.18,9.82,9.82,0,0,1-1.09,0,5.4,5.4,0,0,1-1.9-.59A9.78,9.78,0,0,1,17.67,92a26.88,26.88,0,0,0-3.9-3.42,8.18,8.18,0,0,0-4.66-1.31c-.4,0-.7.64-.66,1.39S8.68,89.84,8.93,89.89Z"/><path d="M37.59,7.68a4.72,4.72,0,0,1,2-1.94,5,5,0,0,1,2.58-.54,5.68,5.68,0,0,1,4,2.12c.11.15.78,0,1.47-.36s1-.74.92-1a7.87,7.87,0,0,0-2-2.78,8.3,8.3,0,0,0-3.78-1.9,8.88,8.88,0,0,0-4.93.37,9.08,9.08,0,0,0-4.34,3.49,8.78,8.78,0,0,0-1.23,2.77A12.68,12.68,0,0,0,32,10.77c0,1.56-.07,3.16-.11,4.78-.05,3.26-.08,6.61-.08,10,0,13.42.48,26.85,1.41,33.53,0,.24.69.41,1.44.4s1.21-.19,1.23-.4c.24-1.71.45-3.88.63-6.37,6.33,1.55,21.81,1.6,28.58.14.17,2.44.38,4.55.61,6.23,0,.24.69.41,1.44.4s1.21-.19,1.24-.4c.93-6.68,1.4-20.11,1.41-33.53,0-3.36,0-6.71-.08-10,0-1.62-.07-3.22-.11-4.78a8,8,0,0,1,0-1.73,4.07,4.07,0,0,1,.47-1.36,4.78,4.78,0,0,1,2-1.94,5.07,5.07,0,0,1,2.59-.54,5.66,5.66,0,0,1,4,2.12c.12.15.79,0,1.47-.36s1-.74.92-1a7.74,7.74,0,0,0-2-2.78,8.31,8.31,0,0,0-3.77-1.9,8.92,8.92,0,0,0-4.94.37A9.12,9.12,0,0,0,66,5.15a8.76,8.76,0,0,0-1.22,2.77,12.2,12.2,0,0,0-.32,2.85c0,1.56-.07,3.16-.1,4.78,0,1.46,0,2.95-.06,4.44-6.83-1.24-20.57-1.2-27.05.13,0-1.54,0-3.06-.06-4.57s-.07-3.22-.1-4.78a8.15,8.15,0,0,1,0-1.73A4.33,4.33,0,0,1,37.59,7.68Zm-.92,41.86c.19-3.42.34-7.28.44-11.36,6.46,1.36,20.47,1.4,27.3.12.09,4,.23,7.75.42,11.1C58,48,43.05,48.05,36.67,49.54ZM64.26,23.68c0,.62,0,1.23,0,1.84,0,3.07,0,6.14.08,9.13-6.83-1.26-20.68-1.22-27.15.13,0-3,.07-6.15.08-9.26,0-.66,0-1.31,0-2C43.73,24.88,57.43,24.93,64.26,23.68Z"/><text x="0" y="115" fill="#000000" font-size="5px" font-weight="bold" font-family="'Helvetica Neue', Helvetica, Arial-Unicode, Arial, Sans-serif">Created by Gregor Cresnar</text><text x="0" y="120" fill="#000000" font-size="5px" font-weight="bold" font-family="'Helvetica Neue', Helvetica, Arial-Unicode, Arial, Sans-serif">from the Noun Project</text></svg>