<svg xmlns="http://www.w3.org/2000/svg" xmlns:xlink="http://www.w3.org/1999/xlink" version="1.1" x="0px" y="0px" viewBox="0 0 100 125" enable-background="new 0 0 100 100" xml:space="preserve"><path d="M90,80.7c-0.2-0.5-0.9-0.9-1.3-1.1c-0.4-0.1-0.8-0.3-1.1-0.3c-1.2-0.3-2.8-0.5-4.6-0.9c-9.1-1.6-24.4-4.2-28.6-14l-0.8-1.9  H82c1.4,0,2.1-0.4,2.3-0.7c0.2-0.3,0.5-0.7,0.5-1.2c0-0.2-0.1-0.4-0.1-0.5c-0.2-0.5-0.9-0.9-1.3-1.1c-0.4-0.1-0.8-0.3-1.1-0.3  c-0.9-0.2-2.1-0.4-3.3-0.7c-8.1-1.6-20.3-4-24.6-14.2l-0.8-1.9h17.7c1.4,0,2.1-0.4,2.3-0.7c0.2-0.3,0.5-0.7,0.5-1.2  c0-0.2-0.1-0.4-0.1-0.5c-0.2-0.5-0.9-0.9-1.3-1.1c-0.4-0.1-0.8-0.3-1.1-0.3c-0.8-0.2-19.3-3.7-19.3-16.7h11c1.1,0,1.9-0.3,2.3-0.7  c0.2-0.3,0.5-0.7,0.5-1.2c0-0.1-0.1-0.3-0.1-0.5c-0.2-0.5-0.9-0.9-1.3-1.1c-0.3-0.1-0.6-0.2-0.8-0.3c-0.1,0-0.1,0-0.2,0h0  c0,0-12-2.6-12-10.7l0,0c0,0,0-0.9-0.7-1.5c0,0,0,0,0,0c0,0,0,0-0.1,0c-0.1,0-0.1-0.1-0.2-0.1c0,0,0,0-0.1,0c0,0-0.1,0-0.1,0  c-0.2,0-0.3-0.1-0.5-0.1c-0.2,0-0.4,0-0.5,0.1c0,0-0.1,0-0.1,0c0,0-0.1,0-0.1,0c-0.1,0-0.1,0.1-0.2,0.1c0,0-0.1,0-0.1,0c0,0,0,0,0,0  c-0.7,0.5-0.7,1.5-0.7,1.5l0,0c0,8.2-12,10.7-12,10.7h0c-0.1,0-0.2,0-0.2,0c-0.2,0.1-0.5,0.1-0.8,0.3c-0.5,0.2-1.1,0.6-1.3,1.1  c-0.1,0.2-0.1,0.4-0.1,0.5c0,0.5,0.3,1,0.5,1.2c0.4,0.4,1.2,0.7,2.3,0.7h11c0,13-18.5,16.6-19.3,16.7c-0.3,0.1-0.7,0.2-1.1,0.3  c-0.5,0.2-1.1,0.6-1.3,1.1c-0.1,0.2-0.1,0.4-0.1,0.5c0,0.5,0.3,1,0.5,1.2c0.3,0.3,1,0.7,2.3,0.7h17.7l-0.8,1.9  C41.3,54,29.1,56.4,21,58c-1.2,0.2-2.3,0.5-3.3,0.7c-0.3,0.1-0.7,0.2-1.1,0.3c-0.5,0.2-1.1,0.6-1.3,1.1c-0.1,0.2-0.1,0.4-0.1,0.5  c0,0.5,0.3,1,0.5,1.2c0.3,0.3,1,0.7,2.3,0.7h28.4l-0.8,1.9c-4.2,9.9-19.5,12.5-28.6,14c-1.8,0.3-3.4,0.6-4.6,0.9  c-0.3,0.1-0.7,0.2-1.1,0.3c-0.5,0.2-1.1,0.6-1.3,1.1c-0.1,0.2-0.1,0.4-0.1,0.5c0,0.5,0.3,1,0.5,1.2c0.3,0.3,1,0.7,2.3,0.7h32.4  L44.5,94c0,0.3,0.1,0.6,0.3,0.8c0.2,0.2,0.5,0.3,0.8,0.3H50h4.5c0.3,0,0.6-0.1,0.8-0.3c0.2-0.2,0.3-0.5,0.3-0.8l-0.6-10.8h32.4  c1.4,0,2.1-0.4,2.3-0.7c0.2-0.3,0.5-0.7,0.5-1.2C90.1,81.1,90.1,80.9,90,80.7z"/><text x="0" y="115" fill="#000000" font-size="5px" font-weight="bold" font-family="'Helvetica Neue', Helvetica, Arial-Unicode, Arial, Sans-serif">Created by Yair Cohen</text><text x="0" y="120" fill="#000000" font-size="5px" font-weight="bold" font-family="'Helvetica Neue', Helvetica, Arial-Unicode, Arial, Sans-serif">from the Noun Project</text></svg>