<svg xmlns="http://www.w3.org/2000/svg" xmlns:xlink="http://www.w3.org/1999/xlink" version="1.1" x="0px" y="0px" viewBox="0 0 128 160" style="enable-background:new 0 0 128 128;" xml:space="preserve"><style type="text/css">
	.st0{display:none;}
	.st1{display:inline;}
	.st2{fill:none;stroke:#000000;stroke-width:0.1;stroke-miterlimit:10;}
</style><g class="st0"><g class="st1"><rect class="st2" width="128" height="128"/><line class="st2" x1="0" y1="124" x2="128" y2="124"/><line class="st2" x1="0" y1="120" x2="128" y2="120"/><line class="st2" x1="0" y1="116" x2="128" y2="116"/><line class="st2" x1="0" y1="112" x2="128" y2="112"/><line class="st2" x1="0" y1="108" x2="128" y2="108"/><line class="st2" x1="0" y1="104" x2="128" y2="104"/><line class="st2" x1="0" y1="100" x2="128" y2="100"/><line class="st2" x1="0" y1="96" x2="128" y2="96"/><line class="st2" x1="0" y1="92" x2="128" y2="92"/><line class="st2" x1="0" y1="88" x2="128" y2="88"/><line class="st2" x1="0" y1="84" x2="128" y2="84"/><line class="st2" x1="0" y1="80" x2="128" y2="80"/><line class="st2" x1="0" y1="76" x2="128" y2="76"/><line class="st2" x1="0" y1="72" x2="128" y2="72"/><line class="st2" x1="0" y1="68" x2="128" y2="68"/><line class="st2" x1="0" y1="64" x2="128" y2="64"/><line class="st2" x1="0" y1="60" x2="128" y2="60"/><line class="st2" x1="0" y1="56" x2="128" y2="56"/><line class="st2" x1="0" y1="52" x2="128" y2="52"/><line class="st2" x1="0" y1="48" x2="128" y2="48"/><line class="st2" x1="0" y1="44" x2="128" y2="44"/><line class="st2" x1="0" y1="40" x2="128" y2="40"/><line class="st2" x1="0" y1="36" x2="128" y2="36"/><line class="st2" x1="0" y1="32" x2="128" y2="32"/><line class="st2" x1="0" y1="28" x2="128" y2="28"/><line class="st2" x1="0" y1="24" x2="128" y2="24"/><line class="st2" x1="0" y1="20" x2="128" y2="20"/><line class="st2" x1="0" y1="16" x2="128" y2="16"/><line class="st2" x1="0" y1="12" x2="128" y2="12"/><line class="st2" x1="0" y1="8" x2="128" y2="8"/><line class="st2" x1="0" y1="4" x2="128" y2="4"/><line class="st2" x1="124" y1="0" x2="124" y2="128"/><line class="st2" x1="120" y1="0" x2="120" y2="128"/><line class="st2" x1="116" y1="0" x2="116" y2="128"/><line class="st2" x1="112" y1="0" x2="112" y2="128"/><line class="st2" x1="108" y1="0" x2="108" y2="128"/><line class="st2" x1="104" y1="0" x2="104" y2="128"/><line class="st2" x1="100" y1="0" x2="100" y2="128"/><line class="st2" x1="96" y1="0" x2="96" y2="128"/><line class="st2" x1="92" y1="0" x2="92" y2="128"/><line class="st2" x1="88" y1="0" x2="88" y2="128"/><line class="st2" x1="84" y1="0" x2="84" y2="128"/><line class="st2" x1="80" y1="0" x2="80" y2="128"/><line class="st2" x1="76" y1="0" x2="76" y2="128"/><line class="st2" x1="72" y1="0" x2="72" y2="128"/><line class="st2" x1="68" y1="0" x2="68" y2="128"/><line class="st2" x1="64" y1="0" x2="64" y2="128"/><line class="st2" x1="60" y1="0" x2="60" y2="128"/><line class="st2" x1="56" y1="0" x2="56" y2="128"/><line class="st2" x1="52" y1="0" x2="52" y2="128"/><line class="st2" x1="48" y1="0" x2="48" y2="128"/><line class="st2" x1="44" y1="0" x2="44" y2="128"/><line class="st2" x1="40" y1="0" x2="40" y2="128"/><line class="st2" x1="36" y1="0" x2="36" y2="128"/><line class="st2" x1="32" y1="0" x2="32" y2="128"/><line class="st2" x1="28" y1="0" x2="28" y2="128"/><line class="st2" x1="24" y1="0" x2="24" y2="128"/><line class="st2" x1="20" y1="0" x2="20" y2="128"/><line class="st2" x1="16" y1="0" x2="16" y2="128"/><line class="st2" x1="12" y1="0" x2="12" y2="128"/><line class="st2" x1="8" y1="0" x2="8" y2="128"/><line class="st2" x1="4" y1="0" x2="4" y2="128"/></g></g><g><g><polygon points="47.9,13.3 4.8,13.3 4.8,18.3 52.9,18.3 52.9,1.8 47.9,1.8   "/><polygon points="4.8,50.1 4.8,55.1 52.9,55.1 52.9,29.1 4.8,29.1 4.8,34.1 47.9,34.1 47.9,50.1   "/><polygon points="4.8,83.2 47.9,83.2 47.9,124.5 52.9,124.5 52.9,78.2 4.8,78.2   "/><polygon points="75.9,1.8 75.9,55.1 124,55.1 124,50.1 80.9,50.1 80.9,1.8   "/><polygon points="75.9,97.2 124,97.2 124,92.2 80.9,92.2 80.9,83.2 124,83.2 124,78.2 75.9,78.2   "/><polygon points="75.9,123.1 80.9,123.1 80.9,113 124,113 124,108 75.9,108   "/><rect x="61.9" y="41.8" width="5" height="2"/><rect x="61.9" y="37.8" width="5" height="2"/><rect x="61.9" y="117.8" width="5" height="2"/><rect x="61.9" y="93.8" width="5" height="2"/><rect x="61.9" y="89.8" width="5" height="2"/><rect x="61.9" y="29.8" width="5" height="2"/><rect x="61.9" y="33.8" width="5" height="2"/><rect x="61.9" y="45.8" width="5" height="2"/><rect x="61.9" y="49.8" width="5" height="2"/><rect x="61.9" y="113.8" width="5" height="2"/><rect x="61.9" y="125.8" width="5" height="0.5"/><rect x="61.9" y="109.8" width="5" height="2"/><rect x="61.9" y="105.8" width="5" height="2"/><rect x="61.9" y="97.8" width="5" height="2"/><rect x="61.9" y="101.8" width="5" height="2"/><rect x="61.9" y="53.8" width="5" height="2"/><rect x="61.9" y="9.8" width="5" height="2"/><rect x="61.9" y="77.8" width="5" height="2"/><rect x="61.9" y="65.8" width="5" height="2"/><rect x="61.9" y="1.8" width="5" height="2"/><rect x="61.9" y="81.8" width="5" height="2"/><rect x="61.9" y="5.8" width="5" height="2"/><rect x="61.9" y="69.8" width="5" height="2"/><rect x="61.9" y="73.8" width="5" height="2"/><rect x="61.9" y="121.8" width="5" height="2"/><rect x="61.9" y="13.8" width="5" height="2"/><rect x="61.9" y="25.8" width="5" height="2"/><rect x="61.9" y="85.8" width="5" height="2"/><rect x="61.9" y="57.8" width="5" height="2"/><rect x="61.9" y="21.8" width="5" height="2"/><rect x="61.9" y="61.8" width="5" height="2"/><rect x="61.9" y="17.8" width="5" height="2"/><rect x="48.7" y="64.1" width="2" height="5"/><rect x="44.7" y="64.1" width="2" height="5"/><rect x="12.7" y="64.1" width="2" height="5"/><rect x="20.7" y="64.1" width="2" height="5"/><rect x="4.7" y="64.1" width="2" height="5"/><rect x="28.7" y="64.1" width="2" height="5"/><rect x="52.7" y="64.1" width="2" height="5"/><rect x="16.7" y="64.1" width="2" height="5"/><rect x="8.7" y="64.1" width="2" height="5"/><rect x="32.7" y="64.1" width="2" height="5"/><rect x="56.7" y="64.1" width="2" height="5"/><rect x="24.7" y="64.1" width="2" height="5"/><rect x="40.7" y="64.1" width="2" height="5"/><rect x="36.7" y="64.1" width="2" height="5"/><rect x="89.1" y="64.1" width="2" height="5"/><rect x="73.1" y="64.1" width="2" height="5"/><rect x="97.1" y="64.1" width="2" height="5"/><rect x="77.1" y="64.1" width="2" height="5"/><rect x="85.1" y="64.1" width="2" height="5"/><rect x="69.1" y="64.1" width="2" height="5"/><rect x="81.1" y="64.1" width="2" height="5"/><rect x="101.1" y="64.1" width="2" height="5"/><rect x="121.1" y="64.1" width="2" height="5"/><rect x="109.1" y="64.1" width="2" height="5"/><rect x="117.1" y="64.1" width="2" height="5"/><rect x="105.1" y="64.1" width="2" height="5"/><rect x="93.1" y="64.1" width="2" height="5"/><rect x="113.1" y="64.1" width="2" height="5"/></g></g><text x="0" y="143" fill="#000000" font-size="5px" font-weight="bold" font-family="'Helvetica Neue', Helvetica, Arial-Unicode, Arial, Sans-serif">Created by SBTS</text><text x="0" y="148" fill="#000000" font-size="5px" font-weight="bold" font-family="'Helvetica Neue', Helvetica, Arial-Unicode, Arial, Sans-serif">from the Noun Project</text></svg>