<?xml version="1.0" encoding="UTF-8" standalone="no"?>
<svg
   xmlns:dc="http://purl.org/dc/elements/1.1/"
   xmlns:cc="http://creativecommons.org/ns#"
   xmlns:rdf="http://www.w3.org/1999/02/22-rdf-syntax-ns#"
   xmlns:svg="http://www.w3.org/2000/svg"
   xmlns="http://www.w3.org/2000/svg"
   height="376.88199"
   width="376.88199"
   id="svg975"
   xml:space="preserve"
   enable-background="new 0 0 512 512"
   viewBox="0 0 376.88199 376.88199"
   y="0px"
   x="0px"
   version="1.1"><metadata
     id="metadata981"><rdf:RDF><cc:Work
         rdf:about=""><dc:format>image/svg+xml</dc:format><dc:type
           rdf:resource="http://purl.org/dc/dcmitype/StillImage" /><dc:title></dc:title></cc:Work></rdf:RDF></metadata><defs
     id="defs979" /><path
     id="path961"
     d="m 181.379,376.882 v -27.98 -14.623 -6.05 c -20.946,-1.06 -41.499,-6.802 -59.841,-16.798 -3.424,-1.867 -4.688,-6.156 -2.822,-9.581 1.869,-3.424 6.158,-4.687 9.581,-2.822 16.274,8.87 34.493,14.019 53.082,15.063 v -52.008 c -35.171,-3.347 -63.235,-31.41 -66.582,-66.58 H 62.776 c 0.912,16.729 5.07,32.809 12.403,47.891 1.705,3.509 0.243,7.734 -3.264,9.439 -0.995,0.482 -2.046,0.713 -3.082,0.713 -2.619,0 -5.135,-1.463 -6.357,-3.977 C 54.201,232.546 49.565,214.389 48.64,195.503 H 34.723 27.981 0 c 3.629,98.536 82.843,177.751 181.379,181.379 z M 88.945,262.643 c 9.255,0 16.758,7.503 16.758,16.759 0,9.256 -7.503,16.758 -16.758,16.758 -9.256,0 -16.759,-7.502 -16.759,-16.758 0,-9.256 7.503,-16.759 16.759,-16.759 z" /><path
     id="path963"
     d="M 376.882,195.504 H 348.9 328.244 c -3.574,71.578 -61.162,129.167 -132.741,132.741 v 6.034 14.623 27.98 c 98.535,-3.628 177.75,-82.843 181.379,-181.378 z" /><path
     id="path965"
     d="m 262.084,195.504 c -3.346,35.17 -31.41,63.233 -66.581,66.58 v 52.008 c 63.786,-3.547 115.04,-54.802 118.587,-118.588 z" /><path
     id="path967"
     d="m 195.503,0 v 27.981 14.623 6.052 c 22.354,1.125 44.149,7.563 63.431,18.822 3.367,1.966 4.503,6.291 2.535,9.659 -1.312,2.249 -3.677,3.502 -6.104,3.502 -1.208,0 -2.435,-0.311 -3.555,-0.964 -17.121,-10 -36.457,-15.769 -56.307,-16.88 V 114.8 c 8.061,0.758 15.87,2.806 23.288,6.146 3.555,1.602 5.141,5.783 3.539,9.339 -1.602,3.558 -5.784,5.14 -9.339,3.541 -7.731,-3.482 -15.991,-5.248 -24.55,-5.248 -33.01,0 -59.865,26.854 -59.865,59.864 0,33.009 26.855,59.863 59.865,59.863 33.01,0 59.864,-26.854 59.864,-59.863 0,-6.414 -1.007,-12.722 -2.993,-18.752 -1.221,-3.704 0.793,-7.696 4.497,-8.917 3.704,-1.22 7.698,0.793 8.917,4.498 1.723,5.228 2.836,10.624 3.355,16.109 h 52.009 c -0.793,-14.453 -4.011,-28.486 -9.626,-41.802 -1.516,-3.594 0.169,-7.735 3.762,-9.251 3.6,-1.519 7.736,0.17 9.252,3.763 6.352,15.062 9.965,30.938 10.771,47.29 H 348.9 376.882 C 373.253,82.844 294.038,3.629 195.503,0 Z m 124.66,85.379 -127.14,108.435 c -1.329,1.134 -2.958,1.689 -4.579,1.689 -1.996,0 -3.979,-0.842 -5.376,-2.48 -2.53,-2.967 -2.177,-7.424 0.79,-9.955 L 310.998,74.632 c 2.965,-2.53 7.424,-2.178 9.955,0.791 2.53,2.967 2.177,7.425 -0.79,9.956 z" /><path
     id="path969"
     d="m 34.724,181.379 h 13.925 c 1.595,-31.698 13.874,-61.919 35.007,-85.759 2.585,-2.918 7.049,-3.189 9.969,-0.6 2.92,2.587 3.188,7.051 0.601,9.969 -18.84,21.253 -29.842,48.151 -31.423,76.39 h 51.995 c 3.347,-35.17 31.411,-63.234 66.582,-66.581 V 62.785 c -7.775,0.431 -15.481,1.567 -22.989,3.406 -3.786,0.928 -7.611,-1.391 -8.538,-5.179 -0.93,-3.789 1.39,-7.612 5.179,-8.54 8.604,-2.107 17.439,-3.378 26.349,-3.824 V 42.603 27.981 0 C 82.845,3.629 3.63,82.844 0.001,181.379 h 27.98 z M 118.773,51.254 c 9.255,0 16.758,7.503 16.758,16.759 0,9.255 -7.503,16.758 -16.758,16.758 -9.256,0 -16.759,-7.503 -16.759,-16.758 0,-9.256 7.503,-16.759 16.759,-16.759 z" /></svg>